# xmcd
#
# Track frame offsets:
#	183
#	21110
#	133133
#	163713
#	231630
#	252385
#
# Disc length: 3577 seconds
#
# Revision: 0
# Processed by: cddbd v1.5PL3 Copyright (c) Steve Scherf et al.
# Submitted via: dBpowerAMP V4.0
#
DISCID=520df706
DTITLE=Namagiripettai Krishnan - Nadhaswaram
DYEAR=1995
DGENRE=Carnatic
TTITLE0=Pranamaamyagam - Goula - Aadi 
TTITLE1=Thodi - Ragam - Pallavi - Ragamaliga
TTITLE2=Nadha Thanu Manusam - Sidha Ranjani - Aadi
TTITLE3=Bajana Seyaraadha -Dharmavathi - Roopagam
TTITLE4=Nannu Seppa  - Mandhaari - Aadi
TTITLE5=Tharunam Thannil - Hamsa Brahamari - Roopagam
EXTD=Nadhaswaram, VR
EXTT0=
EXTT1=
EXTT2=
EXTT3=
EXTT4=
EXTT5=
PLAYORDER=
